# xmcd
#
# Track frame offsets:
#	150
#	14851
#	27149
#	40301
#	50057
#	61155
#	71492
#	85916
#	99412
#	110000
#	123837
#	139440
#
# Disc length: 1999 seconds
#
# Revision: 0
# Processed by: cddbd v1.5.1PL2 Copyright (c) Steve Scherf et al.
# Submitted via: audiograbber 1.83.01
#
DISCID=aa07cd0c
DTITLE=OS FILHOS DO SOLDADO - A FESTA VAI COMEÇAR - VOL. 1
DYEAR=1900
DGENRE=
TTITLE0=A FESTA VAI COMEÇAR
TTITLE1=ABRAÇANDO VOCÊ
TTITLE2=A NUQUINHA
TTITLE3=NÃO QUERO MAIS VOCÊ
TTITLE4=MENINA DA PRAIA
TTITLE5=MINHA GAROTA
TTITLE6=TUDO MUDOU
TTITLE7=OI VIRA
TTITLE8=CONQUISTANDO O MUNDO
TTITLE9=JOGO DE AMOR
TTITLE10=PRA SEMPRE VOU TE AMAR
TTITLE11=A PIPA
EXTD=
EXTT0=
EXTT1=
EXTT2=
EXTT3=
EXTT4=
EXTT5=
EXTT6=
EXTT7=
EXTT8=
EXTT9=
EXTT10=
EXTT11=
PLAYORDER=
